# xmcd
#
# Track frame offsets:
#	150
#	13433
#	29057
#	44460
#	58603
#	73686
#	87069
#	103013
#	117407
#	133041
#	147744
#	163768
#	178031
#	192693
#	205296
#	216520
#
# Disc length: 3072 seconds
#
# Revision: 0
# Processed by: cddbd v1.5.1PL2 Copyright (c) Steve Scherf et al.
# Submitted via: audiograbber 1.83.01
#
DISCID=090bfe10
DTITLE=Jimmie Rodgers - Country Music Hall of Fame
DYEAR=1962
DGENRE=Country
TTITLE0=Jimmie Rodgers - 01 - Sweet Mama Hurry Home or I'll Be Gone (trim 2.55)
TTITLE1=Jimmie Rodgers - 02 - I'm lonesome Too (trim 3.26)
TTITLE2=Jimmie Rodgers - 03 - When The Cactus Is In Bloom (trim 3.23)
TTITLE3=Jimmie Rodgers - 04 - Cowhands Last Ride (trim 3.06)
TTITLE4=Jimmie Rodgers - 05 - Yodeling Cowboy (trim 3.19)
TTITLE5=Jimmie Rodgers - 06 - Dreaming with Tears in My Eyes (trim 2.56)
TTITLE6=Jimmie Rodgers - 07 - Roll Along Kentucky Moon (trim 3.30)
TTITLE7=Jimmie Rodgers - 08 - I'm Free From The Chain Gang Now (trim 3.09)
TTITLE8=Jimmie Rodgers - 09 - For The Sake of Days Gone By (trim 3.26)
TTITLE9=Jimmie Rodgers - 10 - The Soldier's Sweetheart (trim 3.14)
TTITLE10=11 - Gambling barroom Blues (trim 3.31)
TTITLE11=12 - The Sailor's Plea (trim 3.08)
TTITLE12=Jimmie Rodgers - 13 - Old Love letters - 1 (trim 3.13)
TTITLE13=Jimmie Rodgers - 14 - She Was Happy Till She met You (trim 2.46)
TTITLE14=Jimmie Rodgers - 15 - Mississippi River Blues (trim 2.27)
TTITLE15=Jimmie Rodgers - 16 - T.B. Blues (trim 3.05)
EXTD=RCA LPM-2531
EXTT0=
EXTT1=
EXTT2=
EXTT3=
EXTT4=
EXTT5=
EXTT6=
EXTT7=
EXTT8=
EXTT9=
EXTT10=
EXTT11=
EXTT12=
EXTT13=
EXTT14=
EXTT15=
PLAYORDER=
